PathFileType	4	(X/Y/Z)	RBDS013static.trc
DataRate	CameraRate	NumFrames	NumMarkers	Units	OrigDataRate	OrigDataStartFrame	OrigNumFrames
150.000000	150.000000	4	48	mm	150.000000	93	150
Frame#	Time	L.Ankle			L.Ankle.Medial			L.ASIS			L.GTR			L.Heel.Bottom			L.Heel.Lateral			L.Heel.Top			L.HF			L.Iliac.Crest			L.Knee			L.Knee.Medial			L.MT1			L.MT2			L.MT5			L.PSIS			L.Shank.Bottom.Lateral			L.Shank.Bottom.Medial			L.Shank.Top.Lateral			L.Shank.Top.Medial			L.Thigh.Bottom.Lateral			L.Thigh.Bottom.Medial			L.Thigh.Top.Lateral			L.Thigh.Top.Medial			L.TT			R.Ankle			R.Ankle.Medial			R.ASIS			R.GTR			R.Heel.Bottom			R.Heel.Lateral			R.Heel.Top			R.HF			R.Iliac.Crest			R.Knee			R.Knee.Medial			R.MT1			R.MT2			R.MT5			R.PSIS			R.Shank.Bottom.Lateral			R.Shank.Bottom.Medial			R.Shank.Top.Lateral			R.Shank.Top.Medial			R.Thigh.Bottom.Lateral			R.Thigh.Bottom.Medial			R.Thigh.Top.Lateral			R.Thigh.Top.Medial			R.TT			
		X1	Y1	Z1	X2	Y2	Z2	X3	Y3	Z3	X4	Y4	Z4	X5	Y5	Z5	X6	Y6	Z6	X7	Y7	Z7	X8	Y8	Z8	X9	Y9	Z9	X10	Y10	Z10	X11	Y11	Z11	X12	Y12	Z12	X13	Y13	Z13	X14	Y14	Z14	X15	Y15	Z15	X16	Y16	Z16	X17	Y17	Z17	X18	Y18	Z18	X19	Y19	Z19	X20	Y20	Z20	X21	Y21	Z21	X22	Y22	Z22	X23	Y23	Z23	X24	Y24	Z24	X25	Y25	Z25	X26	Y26	Z26	X27	Y27	Z27	X28	Y28	Z28	X29	Y29	Z29	X30	Y30	Z30	X31	Y31	Z31	X32	Y32	Z32	X33	Y33	Z33	X34	Y34	Z34	X35	Y35	Z35	X36	Y36	Z36	X37	Y37	Z37	X38	Y38	Z38	X39	Y39	Z39	X40	Y40	Z40	X41	Y41	Z41	X42	Y42	Z42	X43	Y43	Z43	X44	Y44	Z44	X45	Y45	Z45	X46	Y46	Z46	X47	Y47	Z47	X48	Y48	Z48	

94	0.62	705.7030639648438	102.703010559082	1048.560302734375	723.5242919921875	115.463264465332	1129.870483398438	814.0811157226563	938.4219360351563	1112.284423828125	735.540283203125	849.633056640625	1064.89306640625	632.9215698242188	40.09769439697266	1092.480712890625	656.38525390625	64.20326232910156	1051.203369140625	641.644287109375	87.35259246826172	1091.958374023438	742.4732055664063	437.413330078125	1058.1630859375	756.8341674804688	1002.131774902344	1082.227661132813	745.4161987304688	493.7098083496094	1062.2119140625	736.7789916992188	479.5391235351563	1183.43798828125	842.2318725585938	60.07479095458984	1128.592407226563	853.8709716796875	71.83098602294922	1086.115478515625	814.552001953125	44.35773849487305	1020.462585449219	652.9898071289063	973.6104125976563	1184.970092773438	701.8905029296875	176.6949920654297	1044.614624023438	660.9981689453125	176.4860229492188	1081.885375976563	694.6337280273438	257.0200805664063	1038.82666015625	656.0001220703125	257.4095458984375	1076.340576171875	764.1680908203125	592.7972412109375	1045.39501953125	698.3379516601563	590.0126953125	1077.530395507813	753.0680541992188	702.435302734375	1039.805541992188	691.8407592773438	700.2589721679688	1071.009887695313	784.8712158203125	414.720458984375	1099.8173828125	712.1007690429688	101.9848861694336	1413.528564453125	732.613525390625	115.1041870117188	1333.219116210938	822.8651733398438	940.8220825195313	1348.630737304688	755.1193237304688	851.44189453125	1401.5361328125	638.3466796875	40.55583572387695	1370.638671875	662.5390014648438	61.15949630737305	1410.393432617188	646.9644165039063	91.53303527832031	1369.857543945313	747.2631225585938	436.7390747070313	1406.646728515625	772.2306518554688	1003.684448242188	1380.162109375	743.2442016601563	501.33349609375	1401.42431640625	743.1522827148438	479.48046875	1281.626098632813	845.3047485351563	59.01180267333984	1331.30712890625	852.347412109375	77.72394561767578	1365.144775390625	819.10546875	52.15072250366211	1441.643432617188	654.124755859375	974.6205444335938	1285.573486328125	700.4270629882813	172.7773590087891	1416.914184570313	664.70458984375	174.6314544677734	1380.0556640625	696.3544311523438	257.3941040039063	1423.227905273438	658.8781127929688	255.1681213378906	1384.6083984375	749.1270751953125	628.5704956054688	1418.776489257813	692.0231323242188	621.0061645507813	1372.677978515625	733.9806518554688	737.1831665039063	1414.91259765625	680.7398071289063	730.9082641601563	1370.512329101563	787.938232421875	413.0480651855469	1367.342163085938	
95	0.6266666666666667	705.720703125	102.6989288330078	1048.553833007813	723.5257568359375	115.463737487793	1129.872924804688	814.1187133789063	938.420654296875	1112.280151367188	735.580078125	849.6312866210938	1064.898071289063	632.930419921875	40.10207366943359	1092.477172851563	656.3843383789063	64.21109008789063	1051.200927734375	641.6490478515625	87.35020446777344	1091.966552734375	742.5176391601563	437.4271850585938	1058.163940429688	756.8619384765625	1002.126892089844	1082.233032226563	745.449462890625	493.7161254882813	1062.206420898438	736.7948608398438	479.5424194335938	1183.437255859375	842.2298583984375	60.07138824462891	1128.5849609375	853.8740234375	71.83144378662109	1086.114379882813	814.551513671875	44.35953140258789	1020.46484375	653.01513671875	973.6090698242188	1184.973510742188	701.9041137695313	176.7025756835938	1044.6220703125	661.0113525390625	176.5025329589844	1081.892700195313	694.6553955078125	257.0276184082031	1038.826171875	656.0167236328125	257.4114685058594	1076.35302734375	764.2042236328125	592.8002319335938	1045.40283203125	698.38134765625	590.01025390625	1077.528442382813	753.099609375	702.42724609375	1039.81298828125	691.8658447265625	700.2555541992188	1071.009521484375	784.9180297851563	414.7146301269531	1099.82080078125	712.1093139648438	101.9781646728516	1413.512817382813	732.6220703125	115.0969009399414	1333.217651367188	822.885009765625	940.8216552734375	1348.626586914063	755.1451416015625	851.4291381835938	1401.551147460938	638.345703125	40.55576324462891	1370.638793945313	662.5350952148438	61.16593551635742	1410.389404296875	646.9671630859375	91.53339385986328	1369.86328125	747.2670288085938	436.7391967773438	1406.636962890625	772.2545776367188	1003.684692382813	1380.163818359375	743.2462158203125	501.3359069824219	1401.435180664063	743.1639404296875	479.4665832519531	1281.619995117188	845.3101196289063	59.01027679443359	1331.310791015625	852.3413696289063	77.72010040283203	1365.138305664063	819.1141357421875	52.15324401855469	1441.641357421875	654.146484375	974.6109619140625	1285.578735351563	700.4331665039063	172.7798309326172	1416.918334960938	664.7159423828125	174.6381988525391	1380.060546875	696.3682250976563	257.3883972167969	1423.223754882813	658.8859252929688	255.1748046875	1384.609252929688	749.147705078125	628.5689086914063	1418.766845703125	692.0401611328125	621.0044555664063	1372.669067382813	734.001220703125	737.1660766601563	1414.90625	680.76611328125	730.9049682617188	1370.52001953125	787.9474487304688	413.0582580566406	1367.359252929688	
96	0.6333333333333334	705.5136108398438	102.8905792236328	1048.616455078125	723.5360107421875	115.4667129516602	1129.863403320313	814.1416015625	938.4085693359375	1112.292236328125	735.6016845703125	849.6277465820313	1064.898681640625	632.9313354492188	40.10282897949219	1092.483642578125	656.3900756835938	64.20893096923828	1051.202270507813	641.643798828125	87.36237335205078	1091.961303710938	742.5608520507813	437.4131774902344	1058.178344726563	756.8696899414063	1002.128051757813	1082.23486328125	745.4906616210938	493.7061767578125	1062.21142578125	736.84033203125	479.5386657714844	1183.431640625	842.3104858398438	60.06917953491211	1128.650268554688	853.8690795898438	71.82572937011719	1086.107177734375	814.54833984375	44.35951232910156	1020.463317871094	653.0339965820313	973.6102294921875	1184.977172851563	701.92333984375	176.7026672363281	1044.621826171875	661.020263671875	176.5020446777344	1081.892822265625	694.6737060546875	257.0324401855469	1038.823120117188	656.038330078125	257.4225158691406	1076.331176757813	764.247802734375	592.7986450195313	1045.40283203125	698.4144897460938	590.0077514648438	1077.52978515625	753.1422729492188	702.430419921875	1039.807739257813	691.8905639648438	700.2556762695313	1071.01171875	784.596923828125	414.5988159179688	1100.266479492188	712.1103515625	101.978401184082	1413.51220703125	732.6249389648438	115.1009979248047	1333.215209960938	822.9002685546875	940.8197631835938	1348.643676757813	755.1668090820313	851.438232421875	1401.550415039063	638.342529296875	40.55312347412109	1370.64599609375	662.5374145507813	61.15994644165039	1410.397705078125	646.9663696289063	91.53321838378906	1369.856811523438	747.2808837890625	436.7484436035156	1406.637573242188	772.271728515625	1003.690185546875	1380.166625976563	743.2548828125	501.3444213867188	1401.426391601563	743.1541137695313	479.4894104003906	1281.62451171875	845.3102416992188	59.00705718994141	1331.326416015625	852.3446655273438	77.71828460693359	1365.131958007813	819.246826171875	52.11837387084961	1441.499877929688	654.167236328125	974.6133422851563	1285.5751953125	700.4444580078125	172.7617950439453	1416.913208007813	664.7178955078125	174.6406555175781	1380.061889648438	696.3673095703125	257.3917236328125	1423.223876953125	658.8986206054688	255.1799926757813	1384.60693359375	749.1568603515625	628.578369140625	1418.774047851563	692.0508422851563	621.001708984375	1372.68310546875	734.01953125	737.1698608398438	1414.906372070313	680.78173828125	730.904541015625	1370.520385742188	787.9581909179688	413.0587768554688	1367.357421875	
97	0.64	705.527099609375	102.8898391723633	1048.621337890625	723.5360717773438	115.4607391357422	1129.871704101563	814.1727905273438	938.4221801757813	1112.294677734375	735.6333618164063	849.6323852539063	1064.905517578125	632.923583984375	40.10289001464844	1092.488159179688	656.3934936523438	64.20735931396484	1051.205444335938	641.647705078125	87.36780548095703	1091.960327148438	742.5932006835938	437.4075622558594	1058.175903320313	756.8898315429688	1002.119018554688	1082.230834960938	745.5363159179688	493.7079772949219	1062.211547851563	736.8655395507813	479.5378723144531	1183.44189453125	842.3084716796875	60.06571197509766	1128.643188476563	853.8684692382813	71.82527160644531	1086.129272460938	814.5565795898438	44.35377502441406	1020.467956542969	653.057861328125	973.6024780273438	1184.984375	701.9346313476563	176.7030181884766	1044.618530273438	661.0243530273438	176.5174102783203	1081.901000976563	694.6995849609375	257.0329895019531	1038.821166992188	656.063232421875	257.4264831542969	1076.331909179688	764.287841796875	592.7949829101563	1045.411376953125	698.4480590820313	590.003173828125	1077.533447265625	753.1747436523438	702.4256591796875	1039.81640625	691.9254150390625	700.24853515625	1071.009887695313	784.63916015625	414.5948791503906	1100.281127929688	712.1189575195313	101.9791641235352	1413.515869140625	732.6203002929688	115.1005249023438	1333.21630859375	822.921142578125	940.8211059570313	1348.641479492188	755.1940307617188	851.4370727539063	1401.546142578125	638.3447875976563	40.56060028076172	1370.640991210938	662.5421142578125	61.16446685791016	1410.390869140625	646.9656372070313	91.53314971923828	1369.866455078125	747.52001953125	436.7003784179688	1406.001586914063	772.2927856445313	1003.692199707031	1380.160522460938	743.2713623046875	501.349609375	1401.433837890625	743.1676025390625	479.4978942871094	1281.622192382813	845.314697265625	59.00269317626953	1331.317016601563	852.3451538085938	77.71288299560547	1365.140258789063	819.2493286132813	52.11359024047852	1441.4951171875	654.1892700195313	974.609130859375	1285.584106445313	700.4367065429688	172.7909698486328	1416.906860351563	664.7247924804688	174.6409301757813	1380.0576171875	696.3790283203125	257.403076171875	1423.21875	658.9049682617188	255.1808471679688	1384.6083984375	749.1775512695313	628.5753784179688	1418.773803710938	692.0636596679688	621.018798828125	1372.687866210938	734.0346069335938	737.172607421875	1414.91796875	680.7978515625	730.9036254882813	1370.524047851563	787.970703125	413.0596618652344	1367.364013671875	
